# Blender v2.90.1 OBJ File: 'PosibbleStraight.blend'
# www.blender.org
mtllib PosibbleStraight.mtl
o Plane
v -3.088505 0.000000 3.088505
v -3.088505 0.000000 -3.088505
v -0.170532 0.000000 -3.088505
v -0.170532 0.000000 3.088505
v -1.950648 0.000000 -3.088505
v -1.950648 0.000000 3.088505
v -1.788772 0.000000 3.088505
v -1.788772 0.000000 -3.088505
v -3.088505 0.273812 3.088505
v -3.088505 0.273812 -3.088505
v -3.576416 0.273812 3.088505
v -3.576416 0.273812 -3.088505
v -3.576416 1.062032 3.088505
v -3.576416 1.062032 -3.088505
v -3.923914 1.062032 3.088505
v -3.923914 1.062032 -3.088505
v -3.923914 -0.471861 3.088505
v -3.923914 -0.471861 -3.088505
v 3.088505 0.000000 3.088505
v 3.088505 0.000000 -3.088505
v 0.000000 0.000000 3.088505
v 0.000000 0.000000 -3.088505
v 0.170532 0.000000 -3.088505
v 0.170532 0.000000 3.088505
v 1.950648 0.000000 -3.088505
v 1.950648 0.000000 3.088505
v 1.788772 0.000000 3.088505
v 1.788772 0.000000 -3.088505
v 3.088505 0.273812 3.088505
v 3.088505 0.273812 -3.088505
v 3.576416 0.273812 3.088505
v 3.576416 0.273812 -3.088505
v 3.576416 1.062032 3.088505
v 3.576416 1.062032 -3.088505
v 3.923914 1.062032 3.088505
v 3.923914 1.062032 -3.088505
v 3.923914 -0.471861 3.088505
v 3.923914 -0.471861 -3.088505
v 0.000000 -0.471861 3.088505
v 0.000000 -0.471861 -3.088505
v -3.088505 0.000000 -3.088505
v -3.088505 0.000000 -9.265515
v -0.170532 0.000000 -9.265515
v -0.170532 0.000000 -3.088505
v -1.950648 0.000000 -9.265515
v -1.950648 0.000000 -3.088505
v -1.788772 0.000000 -3.088505
v -1.788772 0.000000 -9.265515
v -3.088505 0.273812 -3.088505
v -3.088505 0.273812 -9.265515
v -3.576416 0.273812 -3.088505
v -3.576416 0.273812 -9.265515
v -3.576416 1.062032 -3.088505
v -3.576416 1.062032 -9.265515
v -3.923914 1.062032 -3.088505
v -3.923914 1.062032 -9.265515
v -3.923914 -0.471861 -3.088505
v -3.923914 -0.471861 -9.265515
v 3.088505 0.000000 -3.088505
v 3.088505 0.000000 -9.265515
v 0.000000 0.000000 -3.088505
v 0.000000 0.000000 -9.265515
v 0.170532 0.000000 -9.265515
v 0.170532 0.000000 -3.088505
v 1.950648 0.000000 -9.265515
v 1.950648 0.000000 -3.088505
v 1.788772 0.000000 -3.088505
v 1.788772 0.000000 -9.265515
v 3.088505 0.273812 -3.088505
v 3.088505 0.273812 -9.265515
v 3.576416 0.273812 -3.088505
v 3.576416 0.273812 -9.265515
v 3.576416 1.062032 -3.088505
v 3.576416 1.062032 -9.265515
v 3.923914 1.062032 -3.088505
v 3.923914 1.062032 -9.265515
v 3.923914 -0.471861 -3.088505
v 3.923914 -0.471861 -9.265515
v 0.000000 -0.471861 -3.088505
v 0.000000 -0.471861 -9.265515
v -3.088505 0.000000 -9.265515
v -3.088505 0.000000 -15.442525
v -0.170532 0.000000 -15.442525
v -0.170532 0.000000 -9.265515
v -1.950648 0.000000 -15.442525
v -1.950648 0.000000 -9.265515
v -1.788772 0.000000 -9.265515
v -1.788772 0.000000 -15.442525
v -3.088505 0.273812 -9.265515
v -3.088505 0.273812 -15.442525
v -3.576416 0.273812 -9.265515
v -3.576416 0.273812 -15.442525
v -3.576416 1.062032 -9.265515
v -3.576416 1.062032 -15.442525
v -3.923914 1.062032 -9.265515
v -3.923914 1.062032 -15.442525
v -3.923914 -0.471861 -9.265515
v -3.923914 -0.471861 -15.442525
v 3.088505 0.000000 -9.265515
v 3.088505 0.000000 -15.442525
v 0.000000 0.000000 -9.265515
v 0.000000 0.000000 -15.442525
v 0.170532 0.000000 -15.442525
v 0.170532 0.000000 -9.265515
v 1.950648 0.000000 -15.442525
v 1.950648 0.000000 -9.265515
v 1.788772 0.000000 -9.265515
v 1.788772 0.000000 -15.442525
v 3.088505 0.273812 -9.265515
v 3.088505 0.273812 -15.442525
v 3.576416 0.273812 -9.265515
v 3.576416 0.273812 -15.442525
v 3.576416 1.062032 -9.265515
v 3.576416 1.062032 -15.442525
v 3.923914 1.062032 -9.265515
v 3.923914 1.062032 -15.442525
v 3.923914 -0.471861 -9.265515
v 3.923914 -0.471861 -15.442525
v 0.000000 -0.471861 -9.265515
v 0.000000 -0.471861 -15.442525
v -3.088505 0.000000 -15.442525
v -3.088505 0.000000 -21.619535
v -0.170532 0.000000 -21.619535
v -0.170532 0.000000 -15.442525
v -1.950648 0.000000 -21.619535
v -1.950648 0.000000 -15.442525
v -1.788772 0.000000 -15.442525
v -1.788772 0.000000 -21.619535
v -3.088505 0.273812 -15.442525
v -3.088505 0.273812 -21.619535
v -3.576416 0.273812 -15.442525
v -3.576416 0.273812 -21.619535
v -3.576416 1.062032 -15.442525
v -3.576416 1.062032 -21.619535
v -3.923914 1.062032 -15.442525
v -3.923914 1.062032 -21.619535
v -3.923914 -0.471861 -15.442525
v -3.923914 -0.471861 -21.619535
v 3.088505 0.000000 -15.442525
v 3.088505 0.000000 -21.619535
v 0.000000 0.000000 -15.442525
v 0.000000 0.000000 -21.619535
v 0.170532 0.000000 -21.619535
v 0.170532 0.000000 -15.442525
v 1.950648 0.000000 -21.619535
v 1.950648 0.000000 -15.442525
v 1.788772 0.000000 -15.442525
v 1.788772 0.000000 -21.619535
v 3.088505 0.273812 -15.442525
v 3.088505 0.273812 -21.619535
v 3.576416 0.273812 -15.442525
v 3.576416 0.273812 -21.619535
v 3.576416 1.062032 -15.442525
v 3.576416 1.062032 -21.619535
v 3.923914 1.062032 -15.442525
v 3.923914 1.062032 -21.619535
v 3.923914 -0.471861 -15.442525
v 3.923914 -0.471861 -21.619535
v 0.000000 -0.471861 -15.442525
v 0.000000 -0.471861 -21.619535
v -3.088505 0.000000 -21.619535
v -3.088505 0.000000 -27.796545
v -0.170532 0.000000 -27.796545
v -0.170532 0.000000 -21.619535
v -1.950648 0.000000 -27.796545
v -1.950648 0.000000 -21.619535
v -1.788772 0.000000 -21.619535
v -1.788772 0.000000 -27.796545
v -3.088505 0.273812 -21.619535
v -3.088505 0.273812 -27.796545
v -3.576416 0.273812 -21.619535
v -3.576416 0.273812 -27.796545
v -3.576416 1.062032 -21.619535
v -3.576416 1.062032 -27.796545
v -3.923914 1.062032 -21.619535
v -3.923914 1.062032 -27.796545
v -3.923914 -0.471861 -21.619535
v -3.923914 -0.471861 -27.796545
v 3.088505 0.000000 -21.619535
v 3.088505 0.000000 -27.796545
v 0.000000 0.000000 -21.619535
v 0.000000 0.000000 -27.796545
v 0.170532 0.000000 -27.796545
v 0.170532 0.000000 -21.619535
v 1.950648 0.000000 -27.796545
v 1.950648 0.000000 -21.619535
v 1.788772 0.000000 -21.619535
v 1.788772 0.000000 -27.796545
v 3.088505 0.273812 -21.619535
v 3.088505 0.273812 -27.796545
v 3.576416 0.273812 -21.619535
v 3.576416 0.273812 -27.796545
v 3.576416 1.062032 -21.619535
v 3.576416 1.062032 -27.796545
v 3.923914 1.062032 -21.619535
v 3.923914 1.062032 -27.796545
v 3.923914 -0.471861 -21.619535
v 3.923914 -0.471861 -27.796545
v 0.000000 -0.471861 -21.619535
v 0.000000 -0.471861 -27.796545
vt 0.511215 0.546678
vt 0.506961 0.674395
vt 0.507688 0.546658
vt 0.391771 0.136190
vt 0.279587 0.106800
vt 0.391771 0.106800
vt 0.391771 0.103860
vt 0.279587 0.083195
vt 0.391771 0.083195
vt 0.474224 0.546467
vt 0.470150 0.674185
vt 0.470876 0.546448
vt 0.819017 0.858204
vt 0.815804 0.795851
vt 0.818569 0.795831
vt 0.816252 0.858223
vt 0.810878 0.795886
vt 0.811325 0.858259
vt 0.802918 0.795943
vt 0.803366 0.858316
vt 0.799410 0.795968
vt 0.799857 0.858341
vt 0.783921 0.796079
vt 0.784369 0.858452
vt 0.744299 0.796364
vt 0.514014 0.674435
vt 0.514741 0.546698
vt 0.279587 0.171774
vt 0.391771 0.142384
vt 0.391771 0.171774
vt 0.279587 0.195379
vt 0.391771 0.174713
vt 0.391771 0.195379
vt 0.550826 0.674645
vt 0.548206 0.546888
vt 0.551553 0.546907
vt 0.883707 0.795363
vt 0.881390 0.857756
vt 0.880942 0.795383
vt 0.888634 0.795328
vt 0.884155 0.857736
vt 0.896593 0.795271
vt 0.889081 0.857701
vt 0.900102 0.795246
vt 0.897040 0.857644
vt 0.915590 0.795134
vt 0.900549 0.857618
vt 0.955212 0.794850
vt 0.916038 0.857507
vt 0.511943 0.418705
vt 0.507690 0.546423
vt 0.508417 0.418685
vt 0.504161 0.136190
vt 0.391977 0.106800
vt 0.504161 0.106800
vt 0.504161 0.103860
vt 0.391977 0.083195
vt 0.504161 0.083195
vt 0.474952 0.418495
vt 0.470878 0.546213
vt 0.471605 0.418476
vt 0.818568 0.795716
vt 0.815356 0.733363
vt 0.818121 0.733343
vt 0.815804 0.795736
vt 0.810429 0.733398
vt 0.810877 0.795771
vt 0.802470 0.733455
vt 0.802918 0.795828
vt 0.798961 0.733480
vt 0.799409 0.795853
vt 0.783472 0.733592
vt 0.783920 0.795965
vt 0.743850 0.733876
vt 0.514743 0.546463
vt 0.515469 0.418725
vt 0.391977 0.171774
vt 0.504161 0.142384
vt 0.504161 0.171774
vt 0.391978 0.195379
vt 0.504161 0.174713
vt 0.504161 0.195379
vt 0.551555 0.546672
vt 0.548934 0.418916
vt 0.552281 0.418935
vt 0.883259 0.732875
vt 0.880941 0.795268
vt 0.880494 0.732895
vt 0.888185 0.732840
vt 0.883706 0.795248
vt 0.896144 0.732783
vt 0.888633 0.795213
vt 0.899653 0.732758
vt 0.896592 0.795156
vt 0.915142 0.732647
vt 0.900101 0.795131
vt 0.954764 0.732362
vt 0.915590 0.795020
vt 0.510487 0.674650
vt 0.506233 0.802367
vt 0.506960 0.674630
vt 0.279381 0.136190
vt 0.167197 0.106800
vt 0.279381 0.106800
vt 0.279381 0.103860
vt 0.167197 0.083195
vt 0.279381 0.083195
vt 0.473496 0.674439
vt 0.469421 0.802158
vt 0.470148 0.674420
vt 0.819465 0.920691
vt 0.816253 0.858338
vt 0.819018 0.858318
vt 0.816700 0.920711
vt 0.811326 0.858374
vt 0.811774 0.920747
vt 0.803367 0.858431
vt 0.803815 0.920804
vt 0.799858 0.858456
vt 0.800306 0.920829
vt 0.784369 0.858567
vt 0.784817 0.920940
vt 0.744747 0.858851
vt 0.513286 0.802407
vt 0.514013 0.674670
vt 0.167197 0.171774
vt 0.279381 0.142384
vt 0.279381 0.171774
vt 0.167197 0.195379
vt 0.279381 0.174713
vt 0.279381 0.195379
vt 0.550098 0.802617
vt 0.547477 0.674860
vt 0.550825 0.674879
vt 0.884155 0.857851
vt 0.881838 0.920244
vt 0.881391 0.857871
vt 0.889082 0.857815
vt 0.884603 0.920224
vt 0.897041 0.857758
vt 0.889530 0.920188
vt 0.900550 0.857733
vt 0.897489 0.920131
vt 0.916039 0.857622
vt 0.900998 0.920106
vt 0.955661 0.857338
vt 0.916486 0.919995
vt 0.512671 0.290733
vt 0.508418 0.418450
vt 0.509145 0.290713
vt 0.616551 0.136190
vt 0.504368 0.106800
vt 0.616551 0.106800
vt 0.616551 0.103860
vt 0.504368 0.083195
vt 0.616551 0.083195
vt 0.475680 0.290523
vt 0.471606 0.418241
vt 0.472333 0.290504
vt 0.818120 0.733228
vt 0.814907 0.670875
vt 0.817672 0.670855
vt 0.815355 0.733248
vt 0.809981 0.670910
vt 0.810428 0.733283
vt 0.802022 0.670968
vt 0.802469 0.733341
vt 0.798513 0.670993
vt 0.798960 0.733366
vt 0.783024 0.671104
vt 0.783472 0.733477
vt 0.743402 0.671388
vt 0.515471 0.418491
vt 0.516198 0.290753
vt 0.504368 0.171774
vt 0.616551 0.142384
vt 0.616551 0.171774
vt 0.504368 0.195379
vt 0.616551 0.174713
vt 0.616551 0.195379
vt 0.552283 0.418700
vt 0.549662 0.290944
vt 0.553010 0.290963
vt 0.882810 0.670388
vt 0.880493 0.732781
vt 0.880045 0.670408
vt 0.887737 0.670352
vt 0.883258 0.732761
vt 0.895696 0.670295
vt 0.888184 0.732725
vt 0.899205 0.670270
vt 0.896143 0.732668
vt 0.914693 0.670159
vt 0.899652 0.732643
vt 0.954316 0.669875
vt 0.915141 0.732532
vt 0.509032 0.930360
vt 0.513285 0.802642
vt 0.512558 0.930380
vt 0.054807 0.142384
vt 0.166991 0.171774
vt 0.054807 0.171774
vt 0.054807 0.174714
vt 0.166991 0.195379
vt 0.054807 0.195379
vt 0.546022 0.930570
vt 0.550097 0.802852
vt 0.549370 0.930589
vt 0.881839 0.920358
vt 0.885051 0.982712
vt 0.882287 0.982731
vt 0.884604 0.920339
vt 0.889978 0.982676
vt 0.889531 0.920303
vt 0.897937 0.982619
vt 0.897490 0.920246
vt 0.901446 0.982594
vt 0.900999 0.920221
vt 0.916935 0.982483
vt 0.916487 0.920110
vt 0.956557 0.982198
vt 0.506232 0.802602
vt 0.505505 0.930340
vt 0.166991 0.106800
vt 0.054807 0.136190
vt 0.054807 0.106800
vt 0.166991 0.083195
vt 0.054807 0.103860
vt 0.054807 0.083195
vt 0.469420 0.802393
vt 0.472041 0.930149
vt 0.468693 0.930130
vt 0.817149 0.983199
vt 0.819466 0.920806
vt 0.819914 0.983179
vt 0.812222 0.983234
vt 0.816701 0.920826
vt 0.804263 0.983291
vt 0.811775 0.920861
vt 0.800754 0.983317
vt 0.803815 0.920918
vt 0.785265 0.983428
vt 0.800306 0.920944
vt 0.745643 0.983712
vt 0.784818 0.921055
vt 0.510488 0.674415
vt 0.279587 0.136190
vt 0.279587 0.103860
vt 0.473497 0.674205
vt 0.744746 0.858737
vt 0.279587 0.142384
vt 0.279587 0.174713
vt 0.547479 0.674626
vt 0.955660 0.857223
vt 0.511216 0.546443
vt 0.391977 0.136190
vt 0.391977 0.103860
vt 0.474225 0.546232
vt 0.744298 0.796249
vt 0.391977 0.142384
vt 0.391977 0.174713
vt 0.548207 0.546653
vt 0.955212 0.794735
vt 0.509760 0.802387
vt 0.167197 0.136190
vt 0.167197 0.103860
vt 0.472769 0.802177
vt 0.745195 0.921224
vt 0.167197 0.142384
vt 0.167197 0.174713
vt 0.546751 0.802598
vt 0.956109 0.919711
vt 0.511944 0.418471
vt 0.504368 0.136190
vt 0.504368 0.103860
vt 0.474954 0.418260
vt 0.743850 0.733761
vt 0.504368 0.142384
vt 0.504368 0.174713
vt 0.548935 0.418681
vt 0.954763 0.732248
vt 0.509758 0.802622
vt 0.166991 0.142384
vt 0.166991 0.174713
vt 0.546749 0.802833
vt 0.956109 0.919825
vt 0.166991 0.136190
vt 0.166991 0.103860
vt 0.472767 0.802412
vt 0.745196 0.921339
vn 0.0000 1.0000 0.0000
vn 1.0000 0.0000 0.0000
vn -1.0000 0.0000 0.0000
vn 0.0000 -1.0000 0.0000
usemtl Material.001
s off
f 21/1/1 3/2/1 4/3/1
f 4/4/1 8/5/1 7/6/1
f 6/7/1 2/8/1 1/9/1
f 7/10/1 5/11/1 6/12/1
f 2/13/2 9/14/2 1/15/2
f 10/16/1 11/17/1 9/14/1
f 12/18/2 13/19/2 11/17/2
f 14/20/1 15/21/1 13/19/1
f 16/22/3 17/23/3 15/21/3
f 18/24/4 39/25/4 17/23/4
f 23/26/1 21/1/1 24/27/1
f 28/28/1 24/29/1 27/30/1
f 20/31/1 26/32/1 19/33/1
f 25/34/1 27/35/1 26/36/1
f 29/37/3 20/38/3 19/39/3
f 31/40/1 30/41/1 29/37/1
f 33/42/3 32/43/3 31/40/3
f 35/44/1 34/45/1 33/42/1
f 37/46/2 36/47/2 35/44/2
f 39/48/4 38/49/4 37/46/4
f 61/50/1 43/51/1 44/52/1
f 44/53/1 48/54/1 47/55/1
f 46/56/1 42/57/1 41/58/1
f 47/59/1 45/60/1 46/61/1
f 42/62/2 49/63/2 41/64/2
f 50/65/1 51/66/1 49/63/1
f 52/67/2 53/68/2 51/66/2
f 54/69/1 55/70/1 53/68/1
f 56/71/3 57/72/3 55/70/3
f 58/73/4 79/74/4 57/72/4
f 63/75/1 61/50/1 64/76/1
f 68/77/1 64/78/1 67/79/1
f 60/80/1 66/81/1 59/82/1
f 65/83/1 67/84/1 66/85/1
f 69/86/3 60/87/3 59/88/3
f 71/89/1 70/90/1 69/86/1
f 73/91/3 72/92/3 71/89/3
f 75/93/1 74/94/1 73/91/1
f 77/95/2 76/96/2 75/93/2
f 79/97/4 78/98/4 77/95/4
f 101/99/1 83/100/1 84/101/1
f 84/102/1 88/103/1 87/104/1
f 86/105/1 82/106/1 81/107/1
f 87/108/1 85/109/1 86/110/1
f 82/111/2 89/112/2 81/113/2
f 90/114/1 91/115/1 89/112/1
f 92/116/2 93/117/2 91/115/2
f 94/118/1 95/119/1 93/117/1
f 96/120/3 97/121/3 95/119/3
f 98/122/4 119/123/4 97/121/4
f 103/124/1 101/99/1 104/125/1
f 108/126/1 104/127/1 107/128/1
f 100/129/1 106/130/1 99/131/1
f 105/132/1 107/133/1 106/134/1
f 109/135/3 100/136/3 99/137/3
f 111/138/1 110/139/1 109/135/1
f 113/140/3 112/141/3 111/138/3
f 115/142/1 114/143/1 113/140/1
f 117/144/2 116/145/2 115/142/2
f 119/146/4 118/147/4 117/144/4
f 141/148/1 123/149/1 124/150/1
f 124/151/1 128/152/1 127/153/1
f 126/154/1 122/155/1 121/156/1
f 127/157/1 125/158/1 126/159/1
f 122/160/2 129/161/2 121/162/2
f 130/163/1 131/164/1 129/161/1
f 132/165/2 133/166/2 131/164/2
f 134/167/1 135/168/1 133/166/1
f 136/169/3 137/170/3 135/168/3
f 138/171/4 159/172/4 137/170/4
f 143/173/1 141/148/1 144/174/1
f 148/175/1 144/176/1 147/177/1
f 140/178/1 146/179/1 139/180/1
f 145/181/1 147/182/1 146/183/1
f 149/184/3 140/185/3 139/186/3
f 151/187/1 150/188/1 149/184/1
f 153/189/3 152/190/3 151/187/3
f 155/191/1 154/192/1 153/189/1
f 157/193/2 156/194/2 155/191/2
f 159/195/4 158/196/4 157/193/4
f 181/197/1 163/198/1 164/199/1
f 164/200/1 168/201/1 167/202/1
f 166/203/1 162/204/1 161/205/1
f 167/206/1 165/207/1 166/208/1
f 162/209/2 169/210/2 161/211/2
f 170/212/1 171/213/1 169/210/1
f 172/214/2 173/215/2 171/213/2
f 174/216/1 175/217/1 173/215/1
f 176/218/3 177/219/3 175/217/3
f 178/220/4 199/221/4 177/219/4
f 183/222/1 181/197/1 184/223/1
f 188/224/1 184/225/1 187/226/1
f 180/227/1 186/228/1 179/229/1
f 185/230/1 187/231/1 186/232/1
f 189/233/3 180/234/3 179/235/3
f 191/236/1 190/237/1 189/233/1
f 193/238/3 192/239/3 191/236/3
f 195/240/1 194/241/1 193/238/1
f 197/242/2 196/243/2 195/240/2
f 199/244/4 198/245/4 197/242/4
f 21/1/1 22/246/1 3/2/1
f 4/4/1 3/247/1 8/5/1
f 6/7/1 5/248/1 2/8/1
f 7/10/1 8/249/1 5/11/1
f 2/13/2 10/16/2 9/14/2
f 10/16/1 12/18/1 11/17/1
f 12/18/2 14/20/2 13/19/2
f 14/20/1 16/22/1 15/21/1
f 16/22/3 18/24/3 17/23/3
f 18/24/4 40/250/4 39/25/4
f 23/26/1 22/246/1 21/1/1
f 28/28/1 23/251/1 24/29/1
f 20/31/1 25/252/1 26/32/1
f 25/34/1 28/253/1 27/35/1
f 29/37/3 30/41/3 20/38/3
f 31/40/1 32/43/1 30/41/1
f 33/42/3 34/45/3 32/43/3
f 35/44/1 36/47/1 34/45/1
f 37/46/2 38/49/2 36/47/2
f 39/48/4 40/254/4 38/49/4
f 61/50/1 62/255/1 43/51/1
f 44/53/1 43/256/1 48/54/1
f 46/56/1 45/257/1 42/57/1
f 47/59/1 48/258/1 45/60/1
f 42/62/2 50/65/2 49/63/2
f 50/65/1 52/67/1 51/66/1
f 52/67/2 54/69/2 53/68/2
f 54/69/1 56/71/1 55/70/1
f 56/71/3 58/73/3 57/72/3
f 58/73/4 80/259/4 79/74/4
f 63/75/1 62/255/1 61/50/1
f 68/77/1 63/260/1 64/78/1
f 60/80/1 65/261/1 66/81/1
f 65/83/1 68/262/1 67/84/1
f 69/86/3 70/90/3 60/87/3
f 71/89/1 72/92/1 70/90/1
f 73/91/3 74/94/3 72/92/3
f 75/93/1 76/96/1 74/94/1
f 77/95/2 78/98/2 76/96/2
f 79/97/4 80/263/4 78/98/4
f 101/99/1 102/264/1 83/100/1
f 84/102/1 83/265/1 88/103/1
f 86/105/1 85/266/1 82/106/1
f 87/108/1 88/267/1 85/109/1
f 82/111/2 90/114/2 89/112/2
f 90/114/1 92/116/1 91/115/1
f 92/116/2 94/118/2 93/117/2
f 94/118/1 96/120/1 95/119/1
f 96/120/3 98/122/3 97/121/3
f 98/122/4 120/268/4 119/123/4
f 103/124/1 102/264/1 101/99/1
f 108/126/1 103/269/1 104/127/1
f 100/129/1 105/270/1 106/130/1
f 105/132/1 108/271/1 107/133/1
f 109/135/3 110/139/3 100/136/3
f 111/138/1 112/141/1 110/139/1
f 113/140/3 114/143/3 112/141/3
f 115/142/1 116/145/1 114/143/1
f 117/144/2 118/147/2 116/145/2
f 119/146/4 120/272/4 118/147/4
f 141/148/1 142/273/1 123/149/1
f 124/151/1 123/274/1 128/152/1
f 126/154/1 125/275/1 122/155/1
f 127/157/1 128/276/1 125/158/1
f 122/160/2 130/163/2 129/161/2
f 130/163/1 132/165/1 131/164/1
f 132/165/2 134/167/2 133/166/2
f 134/167/1 136/169/1 135/168/1
f 136/169/3 138/171/3 137/170/3
f 138/171/4 160/277/4 159/172/4
f 143/173/1 142/273/1 141/148/1
f 148/175/1 143/278/1 144/176/1
f 140/178/1 145/279/1 146/179/1
f 145/181/1 148/280/1 147/182/1
f 149/184/3 150/188/3 140/185/3
f 151/187/1 152/190/1 150/188/1
f 153/189/3 154/192/3 152/190/3
f 155/191/1 156/194/1 154/192/1
f 157/193/2 158/196/2 156/194/2
f 159/195/4 160/281/4 158/196/4
f 181/197/1 182/282/1 163/198/1
f 164/200/1 163/283/1 168/201/1
f 166/203/1 165/284/1 162/204/1
f 167/206/1 168/285/1 165/207/1
f 162/209/2 170/212/2 169/210/2
f 170/212/1 172/214/1 171/213/1
f 172/214/2 174/216/2 173/215/2
f 174/216/1 176/218/1 175/217/1
f 176/218/3 178/220/3 177/219/3
f 178/220/4 200/286/4 199/221/4
f 183/222/1 182/282/1 181/197/1
f 188/224/1 183/287/1 184/225/1
f 180/227/1 185/288/1 186/228/1
f 185/230/1 188/289/1 187/231/1
f 189/233/3 190/237/3 180/234/3
f 191/236/1 192/239/1 190/237/1
f 193/238/3 194/241/3 192/239/3
f 195/240/1 196/243/1 194/241/1
f 197/242/2 198/245/2 196/243/2
f 199/244/4 200/290/4 198/245/4
